<svg xmlns="http://www.w3.org/2000/svg" xmlns:xlink="http://www.w3.org/1999/xlink" version="1.1" width="1000" height="1000" viewBox="0 0 1000 1000" xml:space="preserve">
<defs>
</defs>
<rect x="0" y="0" width="100%" height="100%" fill="none"/>
<g transform="matrix(1 0 0 1 671.1689 500)" style="" id="492058">
		
<path xml:space="preserve" font-family="Antic" font-size="181" font-weight="normal" style="stroke: none; stroke-width: 0; stroke-dasharray: none; stroke-linecap: butt; stroke-dashoffset: 0; stroke-linejoin: miter; stroke-miterlimit: 4; is-custom-font: none; font-file-url: none; fill: rgb(0,0,0); fill-rule: nonzero; opacity: 1; white-space: pre;" d="M-235.84-15.90L-235.84-15.90Q-215.75-8.48-215.75 17.58L-215.75 17.58Q-215.75 30.80-218.74 38.04Q-221.73 45.28-227.34 49.44L-227.34 49.44Q-237.65 56.86-259.55 56.86L-259.55 56.86L-289.42 56.86L-289.42-69.84L-262.27-69.84Q-233.67-69.84-226.07-55.36L-226.07-55.36Q-223.35-50.29-223.35-43.05Q-223.35-35.81-227.06-28.21Q-230.78-20.61-235.84-15.90ZM-255.93-8.84L-277.11-8.84L-277.11 46.90L-260.46 46.90Q-243.63 46.90-236.75 42.38L-236.75 42.38Q-228.06 36.77-228.06 20.12L-228.06 20.12Q-228.06-2.51-243.99-7.21L-243.99-7.21Q-249.24-8.84-255.93-8.84L-255.93-8.84ZM-244.53-18.07L-244.53-18.07Q-235.66-29.66-235.66-40.88Q-235.66-52.10-242.72-55.99Q-249.78-59.89-263.17-59.89L-263.17-59.89L-277.11-59.89L-277.11-18.80L-255.03-18.80Q-249.60-18.80-244.53-18.07Z"/><path xml:space="preserve" font-family="Antic" font-size="181" font-weight="normal" style="stroke: none; stroke-width: 0; stroke-dasharray: none; stroke-linecap: butt; stroke-dashoffset: 0; stroke-linejoin: miter; stroke-miterlimit: 4; is-custom-font: none; font-file-url: none; fill: rgb(144,0,0); fill-rule: nonzero; opacity: 1; white-space: pre;" d="M-93.58 56.86L-105.52 23.37L-161.27 23.37L-172.85 56.86L-184.62 56.86L-138.83-69.84L-127.79-69.84L-80.36 56.86L-93.58 56.86ZM-133.94-56.08L-158.19 14.32L-108.78 14.32L-133.94-56.08Z"/><path xml:space="preserve" font-family="Antic" font-size="181" font-weight="normal" style="stroke: none; stroke-width: 0; stroke-dasharray: none; stroke-linecap: butt; stroke-dashoffset: 0; stroke-linejoin: miter; stroke-miterlimit: 4; is-custom-font: none; font-file-url: none; fill: rgb(144,0,0); fill-rule: nonzero; opacity: 1; white-space: pre;" d="M28.06-66.58L28.06-66.58L25.88-56.27Q11.95-59.34 2.17-59.34L2.17-59.34Q-32.94-59.34-32.94-37.98L-32.94-37.98Q-32.94-29.84-27.78-25.50Q-22.63-21.15-14.75-18.35Q-6.88-15.54 2.17-13.28Q11.22-11.02 19.00-7.21L19.00-7.21Q37.29 1.84 37.29 20.48Q37.29 39.12 23.35 48.71L23.35 48.71Q11.40 57.04-8.14 57.04L-8.14 57.04Q-32.40 57.04-49.05 46.00L-49.05 46.00L-44.34 36.77Q-39.46 40.21-30.41 43.19Q-21.36 46.18-12.85 46.18L-12.85 46.18Q3.80 46.18 13.39 40.75L13.39 40.75Q24.98 34.05 24.98 21.56L24.98 21.56Q24.98 12.33 19.82 7.17Q14.66 2.02 6.79-1.15Q-1.09-4.32-10.14-6.58Q-19.19-8.84-26.97-12.28L-26.97-12.28Q-45.25-20.25-45.25-35.99Q-45.25-51.74-34.39-60.97Q-23.53-70.20-3.62-70.20L-3.62-70.20Q11.77-70.20 28.06-66.58Z"/><path xml:space="preserve" font-family="Antic" font-size="181" font-weight="normal" style="stroke: none; stroke-width: 0; stroke-dasharray: none; stroke-linecap: butt; stroke-dashoffset: 0; stroke-linejoin: miter; stroke-miterlimit: 4; is-custom-font: none; font-file-url: none; fill: rgb(0,0,0); fill-rule: nonzero; opacity: 1; white-space: pre;" d="M148.42-33.46L147.51-56.45Q138.28-60.07 128.15-60.07L128.15-60.07Q107.69-60.07 95.12-45.04Q82.54-30.02 82.54-1.06Q82.54 27.90 95.75 39.48L95.75 39.48Q104.80 47.63 120.91 47.63L120.91 47.63Q131.22 47.63 141.63 45.28Q152.04 42.92 155.84 40.75L155.84 40.75L158.38 49.62Q150.41 54.87 130.50 56.86L130.50 56.86Q124.71 57.58 118.28 57.58Q111.86 57.58 103.17 55.50Q94.48 53.42 87.06 47.09L87.06 47.09Q70.23 32.79 70.23-0.52Q70.23-33.82 86.07-52.01Q101.90-70.20 127.24-70.20L127.24-70.20Q141.36-70.20 151.50-64.59L151.50-64.59Q155.30-62.60 157.47-60.25L157.47-60.25L157.47-34.00L148.42-33.46Z"/><path xml:space="preserve" font-family="Antic" font-size="181" font-weight="normal" style="stroke: none; stroke-width: 0; stroke-dasharray: none; stroke-linecap: butt; stroke-dashoffset: 0; stroke-linejoin: miter; stroke-miterlimit: 4; is-custom-font: none; font-file-url: none; fill: rgb(0,0,0); fill-rule: nonzero; opacity: 1; white-space: pre;" d="M280.55 56.86L268.60 23.37L212.86 23.37L201.27 56.86L189.51 56.86L235.30-69.84L246.34-69.84L293.76 56.86L280.55 56.86ZM240.19-56.08L215.93 14.32L265.35 14.32L240.19-56.08Z"/></g>
<g transform="matrix(1.4635 0 0 1.4635 170.7497 499.9967)" id="579205">
<path style="stroke: none; stroke-width: 1; stroke-dasharray: none; stroke-linecap: butt; stroke-dashoffset: 0; stroke-linejoin: miter; stroke-miterlimit: 4; is-custom-font: none; font-file-url: none; fill: rgb(130,34,0); fill-rule: nonzero; opacity: 1;" vector-effect="non-scaling-stroke" transform=" translate(-116.9041, -125.0503)" d="M 232.237912 124.63958 L 207.054086 87.2418902 L 209.962149 5.64164223 C 210.078472 3.66415939 209.08973 1.7448378 207.403054 0.756096381 C 205.716377 -0.23264504 203.56441 -0.23264504 201.935895 0.814257642 C 182.33555 14.540315 137.493219 48.3901684 122.720259 93.0580162 L 145.984763 87.2418902 C 145.984763 87.2418902 99.1649485 135.22493 81.6002479 210.369278 C 81.6002479 210.369278 79.2156363 220.838305 78.5758624 227.875817 C 79.4482813 229.911461 80.3788615 232.063428 81.1931191 234.273556 C 81.2512804 234.44804 84.1593434 242.29981 85.3807298 246.312937 C 86.078665 248.523064 88.1724703 250.093418 90.4989207 250.093418 L 143.309345 250.093418 C 145.635795 250.093418 147.729601 248.523064 148.427536 246.312937 C 168.318687 181.230487 211.416181 170.528815 213.21918 170.179847 C 214.847695 169.772718 216.243565 168.609493 216.9415 167.039139 L 232.819524 129.757771 C 233.517459 128.071095 233.342976 126.093612 232.237912 124.63958 Z M 116.904133 221.012788 L 99.4557548 191.932158 L 134.352511 191.932158 L 116.904133 221.012788 Z M 160.17611 151.219276 C 144.705215 151.219276 134.352511 151.219276 134.352511 151.219276 L 180.881519 122.138646 C 180.881519 122.138646 175.705167 151.219276 160.17611 151.219276 Z M 87.8235028 52.3451341 C 76.6565408 64.6753212 45.7147505 105.620848 36.9324002 151.219276 L 53.1012305 151.219276 L 49.4370711 173.262394 L 47.4595883 185.185452 C 43.3883 181.812099 35.5365299 176.752069 35.2457236 176.635747 C 26.6960184 171.633879 20.7635699 170.238008 20.5890861 170.179847 C 18.9605708 169.772718 17.5647006 168.609493 16.8667654 167.039139 L 0.988741422 129.757771 C 0.290806301 128.071095 0.465290081 126.093612 1.57035402 124.63958 L 26.7541797 87.2418902 L 23.8461166 5.64164223 C 23.7297941 3.48967561 24.8930193 1.4540315 26.8705022 0.523451341 C 28.7316625 -0.407128821 31.0581129 -0.0581612601 32.6866282 1.39587024 L 87.8235028 52.3451341 Z M 99.4557548 151.219276 C 99.4557548 151.219276 89.1204989 151.219276 73.6088908 151.219276 C 58.0972827 151.219276 52.9267467 122.138646 52.9267467 122.138646 L 99.4557548 151.219276 Z" stroke-linecap="round"/>
</g>
</svg>